<svg xmlns="http://www.w3.org/2000/svg" width="375" viewBox="0 0 375 375" height="375" version="1.0"><defs><clipPath id="a"><path d="M 48 85 L 327.5625 85 L 327.5625 375 L 48 375 Z M 48 85"/></clipPath></defs><g clip-path="url(#a)"><path fill="#FFF" d="M 48.476562 125.023438 L 61.980469 271.855469 C 79.90625 290.863281 113.472656 315.101562 166.292969 310.828125 C 249.140625 304.050781 268.617188 236.417969 269.425781 233.546875 L 283.664062 237.378906 C 283.445312 238.1875 260.945312 317.902344 167.472656 325.566406 C 162.972656 325.933594 158.546875 326.082031 154.34375 326.082031 C 113.472656 326.082031 83.816406 310.019531 63.898438 293.371094 L 70.609375 366.453125 L 308.160156 375 L 327.117188 85.167969 Z M 118.339844 233.179688 C 111.554688 233.179688 106.019531 227.652344 106.019531 220.875 C 106.019531 214.097656 111.554688 208.570312 118.339844 208.570312 C 125.128906 208.570312 130.660156 214.097656 130.660156 220.875 C 130.660156 227.652344 125.128906 233.179688 118.339844 233.179688 Z M 193.882812 217.042969 C 187.097656 217.042969 181.5625 211.519531 181.5625 204.738281 C 181.5625 197.960938 187.097656 192.4375 193.882812 192.4375 C 200.671875 192.4375 206.203125 197.960938 206.203125 204.738281 C 206.203125 211.519531 200.671875 217.042969 193.882812 217.042969 Z M 193.882812 217.042969"/></g><path fill="#FFF" d="M 98.9375 141.527344 C 98.71875 138.507812 93.847656 66.75 127.859375 28.144531 C 140.695312 13.480469 157.441406 5.527344 177.507812 4.347656 C 258.953125 -0.222656 272.453125 115.816406 272.96875 120.75 L 258.289062 122.296875 C 258.140625 121.195312 245.96875 15.101562 178.316406 19.082031 C 162.089844 19.964844 149.25 26.152344 138.921875 37.792969 C 109.046875 71.757812 113.546875 139.757812 113.621094 140.421875 Z M 98.9375 141.527344"/></svg>